<svg height="511pt" viewBox="-61 1 511 511.99897" width="511pt" xmlns="http://www.w3.org/2000/svg"><path d="m352.097656 61.238281h-315.097656c-20.15625 0-36.5 16.34375-36.5 36.503907v377.753906c0 20.160156 16.34375 36.503906 36.5 36.503906h315.097656c20.15625 0 36.5-16.34375 36.5-36.503906v-377.753906c0-20.160157-16.339844-36.503907-36.5-36.503907zm0 0" fill="#87cde9"/><path d="m52.605469 61.238281v36.789063c0 23.824218 19.382812 43.207031 43.210937 43.207031h197.46875c23.824219 0 43.207032-19.382813 43.207032-43.207031v-36.789063zm0 0" fill="#7ab7d1"/><path d="m45.042969 98.027344h299.011719v361.585937h-299.011719zm0 0" fill="#efedee"/><path d="m52.605469 98.027344c0 23.824218 19.382812 43.207031 43.210937 43.207031h197.46875c23.824219 0 43.207032-19.382813 43.207032-43.207031zm0 0" fill="#d9d7d8"/><path d="m293.28125 31.460938h-67.269531c0-17.375-14.085938-31.460938-31.460938-31.460938s-31.460937 14.085938-31.460937 31.460938h-67.273438c-6.796875 0-12.304687 5.507812-12.304687 12.304687v54.257813c0 6.796874 5.507812 12.304687 12.304687 12.304687h197.46875c6.796875 0 12.304688-5.507813 12.304688-12.304687v-54.257813c-.003906-6.796875-5.511719-12.304687-12.308594-12.304687zm0 0" fill="#bab8b9"/><g fill="#464c51"><path d="m135.535156 79.847656c-4.265625 0-7.726562-3.457031-7.726562-7.726562v-10.679688c0-4.265625 3.460937-7.726562 7.726562-7.726562 4.269532 0 7.726563 3.460937 7.726563 7.726562v10.679688c0 4.269531-3.457031 7.726562-7.726563 7.726562zm0 0"/><path d="m253.5625 79.847656c-4.265625 0-7.726562-3.457031-7.726562-7.726562v-10.679688c0-4.265625 3.460937-7.726562 7.726562-7.726562s7.726562 3.460937 7.726562 7.726562v10.679688c0 4.269531-3.460937 7.726562-7.726562 7.726562zm0 0"/><path d="m194.550781 85.550781c-7.90625 0-15.335937-3.3125-20.382812-9.085937-2.808594-3.214844-2.480469-8.09375.730469-10.902344 3.214843-2.808594 8.09375-2.480469 10.902343.734375 2.113281 2.414063 5.300781 3.800781 8.75 3.800781 3.445313 0 6.632813-1.386718 8.746094-3.800781 2.808594-3.214844 7.6875-3.542969 10.902344-.734375 3.214843 2.808594 3.542969 7.691406.734375 10.902344-5.046875 5.773437-12.476563 9.085937-20.382813 9.085937zm0 0"/><path d="m191.519531 203.382812h-108.007812c-4.265625 0-7.726563-3.457031-7.726563-7.726562 0-4.265625 3.460938-7.722656 7.726563-7.722656h108.007812c4.265625 0 7.722657 3.457031 7.722657 7.722656 0 4.269531-3.457032 7.726562-7.722657 7.726562zm0 0"/></g><path d="m260.917969 215.511719c-1.621094 0-3.234375-.507813-4.589844-1.507813-2.359375-1.742187-3.53125-4.671875-3.019531-7.558594l4.042968-22.910156c.742188-4.203125 4.746094-7.007812 8.949219-6.265625 4.203125.742188 7.007813 4.746094 6.265625 8.949219l-1.339844 7.597656 30.835938-15.8125c3.796875-1.949218 8.453125-.449218 10.398438 3.347656 1.949218 3.796876.449218 8.453126-3.347657 10.402344l-44.671875 22.90625c-1.109375.570313-2.320312.851563-3.523437.851563zm0 0" fill="#5bb68d"/><path d="m191.519531 261.933594h-108.007812c-4.265625 0-7.726563-3.457032-7.726563-7.726563 0-4.265625 3.460938-7.726562 7.726563-7.726562h108.007812c4.265625 0 7.722657 3.460937 7.722657 7.726562 0 4.269531-3.457032 7.726563-7.722657 7.726563zm0 0" fill="#464c51"/><path d="m260.917969 274.0625c-1.621094 0-3.234375-.507812-4.589844-1.507812-2.359375-1.742188-3.53125-4.671876-3.019531-7.558594l4.042968-22.910156c.742188-4.203126 4.746094-7.011719 8.949219-6.265626 4.203125.738282 7.007813 4.746094 6.265625 8.949219l-1.339844 7.597657 30.835938-15.8125c3.796875-1.949219 8.453125-.449219 10.398438 3.347656 1.949218 3.796875.449218 8.453125-3.347657 10.402344l-44.671875 22.90625c-1.109375.570312-2.320312.851562-3.523437.851562zm0 0" fill="#5bb68d"/><path d="m191.519531 320.484375h-108.007812c-4.265625 0-7.726563-3.457031-7.726563-7.722656 0-4.269531 3.460938-7.726563 7.726563-7.726563h108.007812c4.265625 0 7.722657 3.457032 7.722657 7.726563 0 4.265625-3.457032 7.722656-7.722657 7.722656zm0 0" fill="#464c51"/><path d="m260.917969 332.613281c-1.621094 0-3.234375-.507812-4.589844-1.507812-2.359375-1.742188-3.53125-4.671875-3.019531-7.5625l4.042968-22.90625c.742188-4.203125 4.746094-7.011719 8.949219-6.265625 4.203125.742187 7.007813 4.75 6.265625 8.949218l-1.339844 7.59375 30.835938-15.808593c3.796875-1.949219 8.453125-.449219 10.398438 3.347656 1.949218 3.796875.449218 8.453125-3.347657 10.398437l-44.671875 22.910157c-1.109375.570312-2.320312.851562-3.523437.851562zm0 0" fill="#5bb68d"/><path d="m191.519531 379.035156h-108.007812c-4.265625 0-7.726563-3.457031-7.726563-7.726562 0-4.265625 3.460938-7.726563 7.726563-7.726563h108.007812c4.265625 0 7.722657 3.460938 7.722657 7.726563 0 4.269531-3.457032 7.726562-7.722657 7.726562zm0 0" fill="#464c51"/><path d="m260.917969 391.164062c-1.621094 0-3.234375-.507812-4.589844-1.507812-2.359375-1.742188-3.53125-4.671875-3.019531-7.558594l4.042968-22.910156c.742188-4.203125 4.746094-7.011719 8.949219-6.265625 4.203125.742187 7.007813 4.75 6.265625 8.949219l-1.339844 7.597656 30.835938-15.8125c3.796875-1.949219 8.453125-.449219 10.398438 3.347656 1.949218 3.796875.449218 8.453125-3.347657 10.402344l-44.671875 22.90625c-1.109375.570312-2.320312.851562-3.523437.851562zm0 0" fill="#5bb68d"/><path d="m200.960938 26.78125c0 3.542969-2.871094 6.414062-6.410157 6.414062-3.542969 0-6.414062-2.871093-6.414062-6.414062 0-3.539062 2.871093-6.410156 6.414062-6.410156 3.539063 0 6.410157 2.871094 6.410157 6.410156zm0 0" fill="#d9d7d8"/></svg>